# xmcd
#
# Track frame offsets:
#	150
#	21492
#	41420
#	59393
#	72321
#	95662
#	111546
#	132237
#	149033
#	172524
#	191998
#
# Disc length: 2766 seconds
#
# Revision: 0
# Processed by: cddbd v1.5.1PL0 Copyright (c) Steve Scherf et al.
# Submitted via: EasyCDDAExtractor 8.2.1.1
#
DISCID=a90acc0b
DTITLE=The Rain - Ellipsis
DYEAR=2005
DGENRE=Gospel - Melodic Metal
TTITLE0=Hulluutta
TTITLE1=Unelmat ja haavat
TTITLE2=Kasvot
TTITLE3=Lenn‰n
TTITLE4=Puutarha
TTITLE5=Katso mua
TTITLE6=J‰‰nmurtaja
TTITLE7=Sankarit ja prinsessat
TTITLE8=Muukalainen
TTITLE9=Samalla mitalla
TTITLE10=Ellipsis
EXTD=
EXTT0=
EXTT1=
EXTT2=
EXTT3=
EXTT4=
EXTT5=
EXTT6=
EXTT7=
EXTT8=
EXTT9=
EXTT10=
PLAYORDER=
